#!OML:ASF Y:\EmotionMaleHayes\Project 1\Capture day 1\Session 1\Male1.ASF
:FULLY-SPECIFIED
:DEGREES
678
root -2.69754 17.2336 -15.9053 6.20991 47.1989 4.46525
lowerback 12.6865 2.27539 -13.6505
upperback 8.27857 1.94631 -4.18647
thorax 1.54124 0.690798 2.97494
lowerneck -23.4631 -2.73756 -0.136247
upperneck 32.4315 -7.67724 10.8897
head 16.0797 -1.47595 3.19052
rclavicle 4.37326e-014 5.88403e-014
rhumerus -52.9501 9.60765 -83.9089
rradius 50.3552
rwrist -10.6893
rhand -12.8793 -37.7966
rfingers 7.12502
rthumb 13.2095 -67.3581
lclavicle 4.37326e-014 5.88403e-014
lhumerus -10.2854 -27.6053 58.3352
lradius 51.7279
lwrist -10.5023
lhand -8.52765 -18.6514
lfingers 7.12502
lthumb 17.4011 10.5897
rfemur -15.7327 -13.276 11.5946
rtibia 26.1476
rfoot -17.0629 -11.3647
rtoes 19.065
lfemur 0.759808 5.19707 -19.4746
ltibia 17.0021
lfoot -16.3391 14.5248
ltoes -26.715
679
root -2.61822 17.2304 -15.8628 6.26826 47.1415 4.88192
lowerback 12.515 2.16528 -13.7842
upperback 8.33616 1.83034 -4.24582
thorax 1.71743 0.618991 3.00345
lowerneck -23.4418 -2.73515 -0.118438
upperneck 32.5542 -7.69491 10.8891
head 16.1363 -1.47665 3.19041
rclavicle 1.59028e-014 -6.67916e-014
rhumerus -53.4356 9.68304 -83.9196
rradius 50.2207
rwrist -10.3593
rhand -12.533 -37.7915
rfingers 7.12502
rthumb 13.5433 -67.3311
lclavicle 1.59028e-014 -6.67916e-014
lhumerus -8.65322 -27.4344 57.9685
lradius 52.0555
lwrist -11.0202
lhand -7.65188 -18.9817
lfingers 7.12502
lthumb 18.2438 10.1827
rfemur -15.6035 -13.7238 11.2612
rtibia 25.8893
rfoot -16.7985 -11.8136
rtoes 17.891
lfemur 1.59898 5.12118 -19.9414
ltibia 16.6014
lfoot -16.3722 14.7891
ltoes -27.8621
680
root -2.54815 17.2247 -15.8147 6.08199 47.1741 4.9861
lowerback 12.3222 2.07026 -13.8063
upperback 8.53707 1.77038 -4.25695
thorax 2.05263 0.565223 3.01668
lowerneck -23.84 -2.70314 0.142101
upperneck 32.7316 -7.77329 10.8109
head 16.3113 -1.46658 3.10483
rclavicle -7.15625e-014 -4.92986e-014
rhumerus -53.6238 9.57775 -83.9846
rradius 50.1189
rwrist -10.0801
rhand -12.354 -37.3637
rfingers 7.12502
rthumb 13.7159 -66.8917
lclavicle -7.15625e-014 -4.92986e-014
lhumerus -6.65545 -27.1576 57.4437
lradius 52.3649
lwrist -11.6079
lhand -6.91163 -19.5652
lfingers 7.12502
lthumb 18.9558 9.53111
rfemur -15.3789 -14.1502 11.2363
rtibia 25.5529
rfoot -16.5846 -12.2645
rtoes 16.874
lfemur 2.4017 5.06531 -20.0348
ltibia 16.2453
lfoot -16.3694 14.8384
ltoes -28.2637
681
root -2.48166 17.2187 -15.7646 5.67725 47.3056 4.79432
lowerback 12.1925 1.94421 -13.6205
upperback 8.69415 1.66731 -4.18251
thorax 2.30699 0.500499 3.01056
lowerneck -24.1666 -2.69829 0.260667
upperneck 32.9236 -7.84922 10.7807
head 16.486 -1.46815 3.0666
rclavicle 7.55382e-014 -1.27222e-014
rhumerus -53.9644 9.41687 -84.0146
rradius 50.1973
rwrist -9.72788
rhand -12.1831 -36.9028
rfingers 7.12502
rthumb 13.8805 -66.4196
lclavicle 7.55382e-014 -1.27222e-014
lhumerus -4.83334 -26.6082 57.1405
lradius 52.7353
lwrist -12.2656
lhand -6.19504 -20.0567
lfingers 7.12502
lthumb 19.6449 8.97067
rfemur -15.0948 -14.5281 11.4257
rtibia 25.1397
rfoot -16.6629 -12.5685
rtoes 18.7462
lfemur 3.15039 4.89239 -19.8508
ltibia 15.9297
lfoot -16.4921 14.8342
ltoes -27.3814
682
root -2.40874 17.2145 -15.7133 5.50884 47.2435 4.79949
lowerback 11.9272 1.74354 -13.6209
upperback 8.57295 1.42556 -4.03721
thorax 2.34915 0.372795 3.19634
lowerneck -23.4952 -2.62036 -0.152797
upperneck 32.9299 -7.53651 10.8284
head 16.3181 -1.40894 3.2241
rclavicle 4.29375e-014 -1.90833e-014
rhumerus -55.2434 10.2125 -84.0428
rradius 50.8665
rwrist -9.63366
rhand -11.6931 -36.8875
rfingers 7.12502
rthumb 14.3527 -66.3713
lclavicle 4.29375e-014 -1.90833e-014
lhumerus -3.9803 -25.8683 57.4709
lradius 53.1091
lwrist -13.1265
lhand -6.14588 -20.2992
lfingers 7.12502
lthumb 19.6921 8.7234
rfemur -14.9773 -14.724 11.4421
rtibia 24.8664
rfoot -16.8191 -12.8143
rtoes 19.8745
lfemur 3.85453 4.86196 -19.9048
ltibia 15.6063
lfoot -16.6428 14.891
ltoes -26.1618
